HIERARCHY
ROOT Hips
{
	OFFSET -14.64140 90.27770 -84.91600
	CHANNELS 6 Xposition Yposition Zposition Zrotation Xrotation Yrotation
	JOINT Spine
	{
		OFFSET 0.00000 13.20850 -1.60436
		CHANNELS 3 Zrotation Xrotation Yrotation
		JOINT Spine1
		{
			OFFSET 0.00000 8.61716 0.00000
			CHANNELS 3 Zrotation Xrotation Yrotation
			JOINT Spine2
			{
				OFFSET 0.00000 8.61717 0.00000
				CHANNELS 3 Zrotation Xrotation Yrotation
				JOINT Spine3
				{
					OFFSET 0.00000 8.61717 0.00000
					CHANNELS 3 Zrotation Xrotation Yrotation
					JOINT Neck
					{
						OFFSET 0.00000 11.07920 1.10792
						CHANNELS 3 Zrotation Xrotation Yrotation
						JOINT Neck1
						{
							OFFSET 0.00000 7.08032 0.00000
							CHANNELS 3 Zrotation Xrotation Yrotation
							JOINT Head
							{
								OFFSET 0.00000 7.08031 0.00000
								CHANNELS 3 Zrotation Xrotation Yrotation
								End site
								{
									OFFSET 0.00000 0.00000 0.00000
								}
							}
						}
					}
					JOINT RightShoulder
					{
						OFFSET -0.01000 7.91373 5.19711
						CHANNELS 3 Zrotation Xrotation Yrotation
						JOINT RightArm
						{
							OFFSET -18.41580 0.00000 0.00000
							CHANNELS 3 Zrotation Xrotation Yrotation
							JOINT RightForeArm
							{
								OFFSET -29.11090 0.00000 0.00000
								CHANNELS 3 Zrotation Xrotation Yrotation
								JOINT RightHand
								{
									OFFSET -24.65040 0.00000 0.00000
									CHANNELS 3 Zrotation Xrotation Yrotation
									JOINT RightHandThumb1
									{
										OFFSET -5.35114 -0.85590 3.97906
										CHANNELS 3 Zrotation Xrotation Yrotation
										JOINT RightHandThumb2
										{
											OFFSET -4.52789 0.00000 0.00000
											CHANNELS 3 Zrotation Xrotation Yrotation
											JOINT RightHandThumb3
											{
												OFFSET -2.46976 0.00000 0.00000
												CHANNELS 3 Zrotation Xrotation Yrotation
												End site
												{
													OFFSET 0.00000 0.00000 0.00000
												}
											}
										}
									}
									JOINT RightHandIndex1
									{
										OFFSET -14.26970 0.00000 2.88139
										CHANNELS 3 Zrotation Xrotation Yrotation
										JOINT RightHandIndex2
										{
											OFFSET -5.48836 0.00000 0.00000
											CHANNELS 3 Zrotation Xrotation Yrotation
											JOINT RightHandIndex3
											{
												OFFSET -3.01859 0.00000 0.00000
												CHANNELS 3 Zrotation Xrotation Yrotation
												End site
												{
													OFFSET 0.00000 0.00000 0.00000
												}
											}
										}
									}
									JOINT RightHandMiddle1
									{
										OFFSET -14.26970 0.00000 -0.09147
										CHANNELS 3 Zrotation Xrotation Yrotation
										JOINT RightHandMiddle2
										{
											OFFSET -6.17441 0.00000 0.00000
											CHANNELS 3 Zrotation Xrotation Yrotation
											JOINT RightHandMiddle3
											{
												OFFSET -3.56743 0.00000 0.00000
												CHANNELS 3 Zrotation Xrotation Yrotation
												End site
												{
													OFFSET 0.00000 0.00000 0.00000
												}
											}
										}
									}
									JOINT RightHandRing1
									{
										OFFSET -12.69180 0.00000 -3.06433
										CHANNELS 3 Zrotation Xrotation Yrotation
										JOINT RightHandRing2
										{
											OFFSET -5.62556 0.00000 0.00000
											CHANNELS 3 Zrotation Xrotation Yrotation
											JOINT RightHandRing3
											{
												OFFSET -3.56744 0.00000 0.00000
												CHANNELS 3 Zrotation Xrotation Yrotation
												End site
												{
													OFFSET 0.00000 0.00000 0.00000
												}
											}
										}
									}
									JOINT RightHandPinky1
									{
										OFFSET -11.11390 0.00000 -6.03719
										CHANNELS 3 Zrotation Xrotation Yrotation
										JOINT RightHandPinky2
										{
											OFFSET -4.52789 0.00000 0.00000
											CHANNELS 3 Zrotation Xrotation Yrotation
											JOINT RightHandPinky3
											{
												OFFSET -2.46976 0.00000 0.00000
												CHANNELS 3 Zrotation Xrotation Yrotation
												End site
												{
													OFFSET 0.00000 0.00000 0.00000
												}
											}
										}
									}
								}
							}
						}
					}
					JOINT LeftShoulder
					{
						OFFSET 0.01000 7.91373 5.19711
						CHANNELS 3 Zrotation Xrotation Yrotation
						JOINT LeftArm
						{
							OFFSET 18.41580 0.00000 0.00000
							CHANNELS 3 Zrotation Xrotation Yrotation
							JOINT LeftForeArm
							{
								OFFSET 29.11090 0.00000 0.00000
								CHANNELS 3 Zrotation Xrotation Yrotation
								JOINT LeftHand
								{
									OFFSET 24.65040 0.00000 0.00000
									CHANNELS 3 Zrotation Xrotation Yrotation
									JOINT LeftHandThumb1
									{
										OFFSET 5.35114 -0.85590 3.97906
										CHANNELS 3 Zrotation Xrotation Yrotation
										JOINT LeftHandThumb2
										{
											OFFSET 4.52789 0.00000 0.00000
											CHANNELS 3 Zrotation Xrotation Yrotation
											JOINT LeftHandThumb3
											{
												OFFSET 2.46977 0.00000 0.00000
												CHANNELS 3 Zrotation Xrotation Yrotation
												End site
												{
													OFFSET 0.00000 0.00000 0.00000
												}
											}
										}
									}
									JOINT LeftHandIndex1
									{
										OFFSET 14.26970 0.00000 2.88139
										CHANNELS 3 Zrotation Xrotation Yrotation
										JOINT LeftHandIndex2
										{
											OFFSET 5.48836 0.00000 0.00000
											CHANNELS 3 Zrotation Xrotation Yrotation
											JOINT LeftHandIndex3
											{
												OFFSET 3.01859 0.00000 0.00000
												CHANNELS 3 Zrotation Xrotation Yrotation
												End site
												{
													OFFSET 0.00000 0.00000 0.00000
												}
											}
										}
									}
									JOINT LeftHandMiddle1
									{
										OFFSET 14.26970 0.00000 -0.09147
										CHANNELS 3 Zrotation Xrotation Yrotation
										JOINT LeftHandMiddle2
										{
											OFFSET 6.17440 0.00000 0.00000
											CHANNELS 3 Zrotation Xrotation Yrotation
											JOINT LeftHandMiddle3
											{
												OFFSET 3.56744 0.00000 0.00000
												CHANNELS 3 Zrotation Xrotation Yrotation
												End site
												{
													OFFSET 0.00000 0.00000 0.00000
												}
											}
										}
									}
									JOINT LeftHandRing1
									{
										OFFSET 12.69180 0.00000 -3.06433
										CHANNELS 3 Zrotation Xrotation Yrotation
										JOINT LeftHandRing2
										{
											OFFSET 5.62556 0.00000 0.00000
											CHANNELS 3 Zrotation Xrotation Yrotation
											JOINT LeftHandRing3
											{
												OFFSET 3.56744 0.00000 0.00000
												CHANNELS 3 Zrotation Xrotation Yrotation
												End site
												{
													OFFSET 0.00000 0.00000 0.00000
												}
											}
										}
									}
									JOINT LeftHandPinky1
									{
										OFFSET 11.11390 0.00000 -6.03719
										CHANNELS 3 Zrotation Xrotation Yrotation
										JOINT LeftHandPinky2
										{
											OFFSET 4.52789 0.00000 0.00000
											CHANNELS 3 Zrotation Xrotation Yrotation
											JOINT LeftHandPinky3
											{
												OFFSET 2.46976 0.00000 0.00000
												CHANNELS 3 Zrotation Xrotation Yrotation
												End site
												{
													OFFSET 0.00000 0.00000 0.00000
												}
											}
										}
									}
								}
							}
						}
					}
					JOINT pCube4
					{
						OFFSET 0.00000 10.91090 1.10792
						CHANNELS 3 Zrotation Xrotation Yrotation
						End site
						{
							OFFSET 0.00000 0.00000 0.00000
						}
					}
				}
			}
		}
	}
	JOINT RightUpLeg
	{
		OFFSET -9.98441 0.00000 0.00000
		CHANNELS 3 Zrotation Xrotation Yrotation
		JOINT RightLeg
		{
			OFFSET 0.00000 -42.11790 0.00000
			CHANNELS 3 Zrotation Xrotation Yrotation
			JOINT RightFoot
			{
				OFFSET 0.00000 -45.00020 -0.00001
				CHANNELS 3 Zrotation Xrotation Yrotation
				JOINT RightForeFoot
				{
					OFFSET 0.00000 -3.74820 0.00000
					CHANNELS 3 Zrotation Xrotation Yrotation
					JOINT RightToeBase
					{
						OFFSET 0.00000 0.06325 14.43120
						CHANNELS 3 Zrotation Xrotation Yrotation
						End site
						{
							OFFSET 0.00000 0.00000 0.00000
						}
					}
				}
			}
		}
	}
	JOINT LeftUpLeg
	{
		OFFSET 9.98441 0.00000 0.00000
		CHANNELS 3 Zrotation Xrotation Yrotation
		JOINT LeftLeg
		{
			OFFSET 0.00000 -42.11800 0.00000
			CHANNELS 3 Zrotation Xrotation Yrotation
			JOINT LeftFoot
			{
				OFFSET 0.00000 -45.00070 0.00000
				CHANNELS 3 Zrotation Xrotation Yrotation
				JOINT LeftForeFoot
				{
					OFFSET 0.00000 -3.74824 0.00000
					CHANNELS 3 Zrotation Xrotation Yrotation
					JOINT LeftToeBase
					{
						OFFSET 0.00000 0.06325 14.43110
						CHANNELS 3 Zrotation Xrotation Yrotation
						End site
						{
							OFFSET 0.00000 0.00000 0.00000
						}
					}
				}
			}
		}
	}
}
MOTION
Frames: 4
Frame Time: 0.050000
0.02125842174009949 -0.03205437717364384 0.04711426258004536 -0.014254956021820864 -0.007083194923186424 0.029069945945266747 3.4903122875034502 4.5092808670379885 -1.7728028763366719 -0.7713126272966018 3.5176281932821256 0.36354802821584525 -0.6978020129520491 -1.1737559066850074 -0.4337126428676217 -0.4248822324413891 -0.42797456545806956 -0.5500155992504184 -0.3889368581400362 12.565376416161214 -1.0535596131129004 0.3542047880268381 -0.3690677871689432 -2.5254829744731024 0.7351585809139436 -16.523822896836162 -0.21505741434540024 -9.197538243973929 3.2908706149478126 -16.815748715387624 73.06217905720804 -6.562938018933316 1.672806432205936 1.2849118567043947 0.4870851063303204 67.05624755796964 16.222747154157567 -0.3594420684415509 -1.966506078201115 4.5685918100159855 -0.09634679625139944 -1.61294171483595 0.015810187139998853 -0.002093938255691075 -56.216482503329075 0.03558228459787934 0.015479874512373402 -56.28381077318404 -38.74400919107658 0.007815599380621728 -0.0405563582456266 -0.005629744357715252 0.021038804571676617 0.011874739090677279 -0.024769682196939286 -0.039270608090868325 0.0045520103804077335 -36.68790413833002 -0.044996647605646006 -0.005484774050789649 -0.014676220304588589 -0.0054824231900335064 0.003597627267583783 -0.01858693849002252 0.002587153661673914 -0.03572748370892537 -19.805282997410604 -0.0169561288241205 -0.011035688919619072 -0.015185766872088221 0.017658271877075825 0.009851894459602113 0.03944475328247449 0.004274557031007097 0.03660986604653442 24.06264877622014 -0.026476071241643438 0.04847874321361472 28.84636545542706 -0.0030532306070633246 0.00312423263506415 28.82802560829873 -0.02784959962988506 -0.02128746177385839 11.52839163434934 2.799993351790257 14.637967991568685 -62.862465676423895 2.0595217568813773 -23.427109199426198 -13.0295955984118 -4.257571485973643 -85.487969532504 -12.206383290066203 -3.1418009387556673 -0.9510648384413227 -0.4846002266787601 0.024036264828720344 -8.136494682391357 0.020550111981683827 -0.009285612120069172 44.564579002780185 0.026732661138421966 -0.002116255919831949 44.605841576867476 12.41788463295148 0.012436686502031691 0.03285352827689831 0.020396650368280055 0.010127481162789088 -0.02450508010707774 0.0292863440443407 -0.0006150577699479505 0.04520904688460252 11.133603099160096 -0.04483550336929888 0.033588703532031056 -0.003564637962104982 0.009340102462307102 -0.04693274917686497 -0.03198784636094564 -0.033817128851797884 0.01657351563674068 4.740908029982994 0.011430961433960864 -0.03094314251549513 -0.006949622704879882 -0.030735526214554734 -0.0152708848997978 -0.029998023637408222 0.002743387697487083 -0.02804531303722463 -5.612250858566295 0.03763137665982534 0.0319589970125604 -6.701452879681936 -0.02607976119282445 -0.01913779672080911 -6.767769914337328 0.024969425918868877 0.017982217945623716 0.03898784448003778 -0.03873762126466371 -0.017978914004430278 8.045652710924571 3.490262282867492 -19.220189928274902 0.047505774224645476 10.40583033031142 -0.022362850076320977 -5.617876692675361 -15.610839789634273 3.2340844836187053 0.010625668721387378 0.0352387823333906 0.011840813460962558 0.014579638354475594 4.746867596019866 -0.03048689742719502 12.479771437960789 -8.20770760040642 6.849972479654925 -0.0020914621048702107 46.35256498764171 -0.03993082406019667 -4.289864287562722 -14.727079871248542 -3.8333347180206503 0.04059164602975805 0.04321967671076408 -0.0002248632288490903 0.007513766216156004 -10.727383482190561 0.009556884745511252 
-0.013697855828028955 -0.006342398225541693 0.005094446058034716 -0.026871167824221432 -0.005207265448822153 -0.03181237160658097 3.5089031620755473 4.502864617344016 -1.848950049128772 -0.7989622537356013 3.503410259287298 0.35830707617550284 -0.6833802845875601 -1.1869634485974945 -0.5362466608078481 -0.399605751423708 -0.4431066223183513 -0.5004077644782127 -0.42996487642256237 12.570823569799321 -0.969553455719436 0.2838420733867512 -0.35852234064568006 -2.118340389740139 0.6269296948007812 -16.67461272351023 -0.20003834331946435 -9.449799636814626 3.3731348466027895 -16.904357352845388 73.25857089235011 -6.548766178307197 1.0968392102826396 1.3879499310003667 -0.2526754368758602 67.63908146572412 16.074480332980606 -0.3203005965359592 -1.9046880214347086 4.576558189879314 -0.14024138481901802 -1.5599383498687078 -0.013955273642744659 0.04227423702803619 -56.2123896915374 -0.017923266749820397 0.002486622238476531 -56.24976352469523 -38.73719776130513 0.01574597717648936 0.025395547072359075 0.016831368326593564 -0.012107803546410214 -0.037201142278876206 -0.0053122566076547716 -0.001598985180287665 0.03919475542289514 -36.70839162687921 -0.009177892959944945 -0.03556379286436577 0.012159339583264445 -0.016197905744045647 0.008956660108585292 -0.011261289775649557 0.02090674700838478 -0.0420997161674579 -19.73307588378621 -0.02877463974884207 0.0001434037879338447 0.027177380290882562 0.03881180256443599 -0.0351755785983513 -0.044439233020807094 -0.02155177154211378 -0.0035920240250712564 24.008309237000354 0.04433301580236175 -0.016093369792032807 28.842681516169133 -0.03150708917162327 0.010153795778795044 28.81756366613657 0.014380321775421017 -0.0010622396271371462 11.926617017899416 2.848258181575223 14.79430085312599 -62.41303165340217 1.6610241633952127 -24.181801270174724 -12.609539907561276 -5.056633382788926 -86.32575676295076 -11.979443175945962 -3.3972253772126053 -0.9839104348553103 -0.4580202823113875 0.11429774180775593 -8.15658265921999 0.008837741000286517 0.027929641810707475 44.56345922652209 -0.02385438287061369 1.6868827358344218e-05 44.53815037986113 12.422300333500731 -0.017430368149390925 0.03500392047283288 0.04336468939359108 0.013993878446201022 0.017551648561116347 -0.0007194690486382851 0.03721325122072607 -0.012138515921829768 11.08270576148225 -0.034785756670729646 -1.4214110843418492e-05 0.007909031118944363 -0.03138685602865686 -0.011966719078602708 -0.022839494544088845 0.03284483170211153 0.04504931138481886 4.786262785138883 0.044439341344594485 -0.012275857916293542 0.0170283440442056 -0.018771959735243777 -0.049528671426720114 0.033562064515616954 -0.044234515925170054 0.0028442677371843424 -5.582746013052822 0.02428630724116529 -0.02753789433208439 -6.692478016176069 -0.015811200153036973 -0.012269533446003966 -6.74481623991385 0.015694584552827212 0.01623151229644929 0.02722264228680368 -0.007855687885676914 -0.04789288169815317 8.088926476717036 3.510338294032161 -19.254488334954505 0.023780078924769583 10.402991244509039 0.007162094173674917 -5.57797942344376 -15.631154503924641 3.2267978402298763 -0.04704327599218493 -0.0034553859627044128 -0.025580456864199456 -0.0087402535778558 4.667970914340265 0.02226300260096721 12.458882069942545 -8.239661065174936 6.9013148207181665 0.03400929810473665 46.33092484691527 0.012444665097102604 -4.353616000844228 -14.785542067060716 -3.8429896418986687 0.003564828532017981 -0.04397617153617649 0.02838184682222237 -0.049266662882644544 -10.770020024961221 0.005796245662350093 
0.02105817992789513 -0.0005583454267004724 0.019551291184276773 0.03354504782348274 -0.02640663347273993 -0.027044552555728137 3.5696940552298466 4.426226037734447 -1.835877522218057 -0.857456217218876 3.5007321652463705 0.34843796237711555 -0.6328335349222902 -1.2376023411938348 -0.6354788881915923 -0.4404195566827221 -0.4521734841597303 -0.5024911887179941 -0.5178050170963991 12.665223405144786 -0.930946075908541 0.2942008025395693 -0.43206057890810823 -1.724173907697209 0.6026294397818475 -16.674241220859777 -0.15702569356569582 -9.4608318432131 3.405237608072829 -17.000429941135238 73.60530091545508 -6.473159098104408 0.15957740089230427 1.0860861229153436 -0.9655054544928305 68.05683210086589 16.44975574541969 -0.39656997623798823 -2.0089784495460647 4.541936489067638 -0.12538676352421727 -1.599754300549136 -0.04283857035580784 -0.011962349936335603 -56.22746227451697 -0.029491130276684475 -0.025288244772615116 -56.19854772276949 -38.784072987967264 -0.019022389802068718 -0.030042012902493094 -0.04415478961707255 -0.04448061232133292 -0.015807415132950576 -0.006877204833473401 -0.038810236143657376 0.02506588766132728 -36.698540005008546 0.010940943378151298 -0.03961896918926793 -0.025075475768527842 0.00467029456464944 -0.023860534673563964 -0.016390426137579878 0.03211028606799366 -0.006654752868186765 -19.71535584568434 -0.011380592908886251 -0.009951733547816938 0.03490255254135348 -0.035620522907114455 0.002811148196613144 -0.03151041506416769 0.018993831257195278 0.041090042359577424 24.02245095592835 -0.010545223523457065 -0.012713737793692607 28.82412904928792 0.004396937706119336 -0.027716380899079386 28.913004769817494 0.03559236458833861 0.025098041783871393 12.196162348843869 2.8676667665734272 14.867434977049799 -61.98036109818531 1.2333538268308593 -24.75001443648727 -12.851383313268146 -5.75859471923772 -87.37617898795371 -12.086384835432627 -3.61006395876883 -0.9631538419975544 -0.5153995848743459 0.07270806349646002 -8.125963372192684 0.01703777337697806 -0.005794842084609786 44.601456836347516 0.0032463606256932158 0.0055431522070464815 44.60379954755819 12.458049724434098 -0.007897844293499538 -0.011887923133505658 0.01861954035776569 0.010006177332652178 -0.00987574739633688 0.018275984579962424 0.018786803406822445 0.0407463424302797 11.099724263089835 -0.03190425185427257 0.03654405477822796 -0.0418126689133054 0.02354506446706479 0.025083618250205445 0.04693957744768579 -0.007833521711526528 0.0021771518726105463 4.771220488074406 0.03875171199591215 -0.029641575097401954 0.0349569381190222 -0.03187331049643839 0.029771114401355103 0.0011539289167276884 -0.016799680991587258 0.02728778182246793 -5.597959339355332 -0.02784150543794359 0.023051182075336983 -6.744101359122704 0.02898048217497613 0.043895540190604966 -6.7030402425635724 0.03589579631358518 0.009994398333817179 0.01439021371876604 0.01743690792938346 0.01896823318565681 8.057811560967787 3.5313587038934178 -19.1810003760193 0.002183615097824009 10.365087889559192 0.012818633848475779 -5.647616730140316 -15.652912300827387 3.1901536237823334 -0.04355010617273497 0.041008444291299045 0.0074003858814584485 -0.008227760212023276 4.730939372324403 -0.007701604424585976 12.477565315795452 -8.249135277386207 6.898316554096675 0.026205118249689886 46.3805981667889 0.01413152383702938 -4.292054136927053 -14.757837884290858 -3.816334391525104 -0.023857610924580105 -0.04276446193264942 -0.0072360434031596655 0.040124299174055925 -10.7224862703144 0.024279571588712662 
-0.018739807938125224 -0.015335014203708358 -0.009737684466694358 0.012414974692735135 0.0009803893314801132 0.007436848940755592 3.3058245269243325 4.586719058520989 -1.805228935776677 -0.7729788888962854 3.4687031720630257 0.39031331524644985 -0.6339490805715866 -1.2063237848442083 -0.7903082626372013 -0.47762594059957864 -0.45119679582828615 -0.5601268422275976 -0.542230707829326 12.43908063713418 -0.9274272976338158 0.2917018291419631 -0.5122182675962108 -1.82015945019428 0.6899345839083733 -16.72479448459139 -0.18058819186234973 -9.060806530463848 3.3273905985187815 -16.921525242905346 73.6149682697262 -6.752628399518297 -0.9064137943220094 0.44495177900549754 -1.2710444717962035 68.14543193116741 17.35236822878378 -0.3703860949320886 -2.179605971530387 4.552344185001519 -0.09121823248554646 -1.5796170422020408 -0.022321814898848075 0.02236228881401997 -56.1994127759959 0.044548433889284485 -0.042318257487374694 -56.20340271116021 -38.75990073455356 0.03348065211075705 -0.009119288506664781 0.004737784291344508 0.02651718362491479 0.008900929588316384 -0.041230048341675554 -0.029598997269893183 0.011984211948848756 -36.7316922418068 0.025346986895905622 0.02262820323230642 0.004801742701819871 0.013025647150197002 -0.035965387130479656 -0.04243332714780594 0.009280309026351024 -0.03134337417112477 -19.73764909568193 0.01836595816138274 0.004187274695397911 -0.003714572866618603 0.030192319247192262 -0.0449133831647829 0.04897755298177863 -0.04451452400564797 -0.009514826948745624 24.035538384402173 0.021525129803635128 -0.04548291348858111 28.851154946967764 -0.008462849157097307 0.042041389793982274 28.877021691967276 -0.02764205683975177 -0.020832454508904856 11.95498175357013 2.8616998859945677 14.698993864071202 -61.293101660410976 1.0423904452091823 -24.988839656903203 -13.362202963387704 -6.140490878907082 -88.71334560166508 -12.431907750880143 -3.6882611806516383 -1.0671674823406685 -0.49710667812087994 0.06903880811056841 -8.167539468473132 -0.030170128344843356 -0.042992391843508886 44.566356614693035 0.004003406390725221 -0.01254411103784962 44.56489518037558 12.432946957932357 -0.006612629309721179 0.03631386582619273 0.02396460173007963 0.03297450938100403 0.03207714913315572 -0.016484869737202888 -0.02624405035596511 -0.02569241503899224 11.125052931965904 0.03517340385808024 0.01980130984738398 -0.04985541583822052 0.03377728971228947 -0.0011110575863277823 0.002342339495714947 0.0437404543934545 0.013849140965412812 4.789538479782877 -0.00039621841953565984 0.03299739668739058 -0.012261067497812543 -0.010497171508708474 -0.00962777859348635 -0.01497860624873032 -0.03020031668834831 0.04976114280783411 -5.565077197879396 0.024442949745114673 0.022626037225639044 -6.713170475032426 0.023880553366159355 -0.02521768842476115 -6.674506281215984 -0.01729113098622083 -0.014064572197023286 -0.012632910600213163 -0.015024696860168173 0.008845679068947367 8.023929895169275 3.513143685257073 -19.248197356159864 -0.014271288613405887 10.437136606768934 0.060334318707579854 -5.631874220533765 -15.66201428106095 3.155658634026188 -0.026520560657813597 0.01856641054890246 -0.0316608799264858 0.004587790935052518 4.719031292713389 -0.04447543140434889 12.436785010194317 -8.226521763893862 6.864956884397193 -0.03999165536897119 46.42848256131058 0.029726027239340435 -4.334207700468071 -14.752996999662356 -3.8787815620539208 -0.01627245799196386 0.002456821947087432 0.03807924888371269 -0.036608216562926045 -10.717013368693273 0.022687103144043565 
